<svg width="165" height="27" viewBox="0 0 165 27" fill="none" xmlns="http://www.w3.org/2000/svg">
<path d="M16.7731 21.6896L16.7467 10.6481L11.3225 19.7442H9.40029L4.00236 10.8847V21.6896H0V3.28716H3.5284L10.4272 14.723L17.2207 3.28716H20.7228L20.7754 21.6896H16.7731Z" fill="#E4FE7E"/>
<path d="M30.1966 7.33569C32.3909 7.33569 34.0761 7.86148 35.2522 8.91304C36.4283 9.94709 37.0164 11.5157 37.0164 13.6188V21.6896H33.172V19.9282C32.3996 21.2427 30.9602 21.8999 28.8537 21.8999C27.7653 21.8999 26.8174 21.7159 26.0099 21.3478C25.22 20.9798 24.6143 20.4715 24.193 19.8231C23.7717 19.1746 23.5611 18.4385 23.5611 17.6148C23.5611 16.3003 24.0526 15.2663 25.0356 14.5126C26.0362 13.759 27.5722 13.3822 29.6436 13.3822H32.9087C32.9087 12.4884 32.6366 11.8049 32.0924 11.3316C31.5482 10.8409 30.732 10.5956 29.6436 10.5956C28.8888 10.5956 28.1427 10.7182 27.4055 10.9636C26.6857 11.1914 26.0713 11.5069 25.5623 11.91L24.0877 9.04449C24.8601 8.50118 25.7817 8.08055 26.8525 7.78261C27.9409 7.48467 29.0556 7.33569 30.1966 7.33569ZM29.8806 19.1395C30.5828 19.1395 31.2059 18.9818 31.7501 18.6663C32.2943 18.3333 32.6805 17.8514 32.9087 17.2204V15.7745H30.0912C28.406 15.7745 27.5634 16.3266 27.5634 17.4307C27.5634 17.9565 27.7653 18.3771 28.1691 18.6926C28.5904 18.9906 29.1609 19.1395 29.8806 19.1395Z" fill="#E4FE7E"/>
<path d="M55.1261 7.54601V19.3236C55.1261 21.9174 54.4502 23.8453 53.0985 25.1072C51.7469 26.3691 49.772 27 47.174 27C45.8048 27 44.5058 26.8335 43.277 26.5005C42.0482 26.1675 41.03 25.6855 40.2225 25.0546L41.8551 22.1102C42.4519 22.6009 43.2067 22.9865 44.1196 23.2669C45.0324 23.5649 45.9452 23.7139 46.858 23.7139C48.2799 23.7139 49.3244 23.3896 49.9915 22.7412C50.6761 22.1102 51.0184 21.1463 51.0184 19.8493V19.2447C49.9476 20.4189 48.4555 21.0061 46.542 21.0061C45.243 21.0061 44.0493 20.7257 42.961 20.1648C41.8902 19.5865 41.0388 18.7803 40.4068 17.7462C39.7749 16.7122 39.4589 15.5204 39.4589 14.1709C39.4589 12.8214 39.7749 11.6296 40.4068 10.5956C41.0388 9.56151 41.8902 8.76407 42.961 8.20324C44.0493 7.62488 45.243 7.33569 46.542 7.33569C48.5959 7.33569 50.1582 8.01045 51.229 9.35996V7.54601H55.1261ZM47.3583 17.6411C48.4467 17.6411 49.3332 17.3256 50.0178 16.6946C50.7199 16.0462 51.071 15.2049 51.071 14.1709C51.071 13.1368 50.7199 12.3043 50.0178 11.6734C49.3332 11.0249 48.4467 10.7007 47.3583 10.7007C46.27 10.7007 45.3747 11.0249 44.6725 11.6734C43.9704 12.3043 43.6193 13.1368 43.6193 14.1709C43.6193 15.2049 43.9704 16.0462 44.6725 16.6946C45.3747 17.3256 46.27 17.6411 47.3583 17.6411Z" fill="#E4FE7E"/>
<path d="M58.5731 7.54601H62.6808V21.6896H58.5731V7.54601ZM60.6269 5.57432C59.8721 5.57432 59.2577 5.35524 58.7837 4.91709C58.3098 4.47894 58.0728 3.93563 58.0728 3.28716C58.0728 2.63869 58.3098 2.09538 58.7837 1.65723C59.2577 1.21908 59.8721 1 60.6269 1C61.3818 1 61.9962 1.21031 62.4701 1.63094C62.9441 2.05157 63.1811 2.57735 63.1811 3.20829C63.1811 3.89181 62.9441 4.46141 62.4701 4.91709C61.9962 5.35524 61.3818 5.57432 60.6269 5.57432Z" fill="#E4FE7E"/>
<path d="M72.963 21.8999C71.4534 21.8999 70.0929 21.5932 68.8817 20.9798C67.688 20.3488 66.7488 19.4813 66.0642 18.3771C65.3972 17.273 65.0636 16.0199 65.0636 14.6178C65.0636 13.2157 65.3972 11.9626 66.0642 10.8584C66.7488 9.7543 67.688 8.89552 68.8817 8.2821C70.0929 7.65116 71.4534 7.33569 72.963 7.33569C74.4552 7.33569 75.7542 7.65116 76.8601 8.2821C77.9836 8.89552 78.7998 9.78059 79.3089 10.9373L76.1228 12.6461C75.3855 11.3492 74.3235 10.7007 72.9367 10.7007C71.8659 10.7007 70.9794 11.0512 70.2772 11.7523C69.5751 12.4533 69.224 13.4085 69.224 14.6178C69.224 15.8271 69.5751 16.7823 70.2772 17.4833C70.9794 18.1844 71.8659 18.5349 72.9367 18.5349C74.341 18.5349 75.4031 17.8864 76.1228 16.5895L79.3089 18.3246C78.7998 19.4462 77.9836 20.3225 76.8601 20.9535C75.7542 21.5844 74.4552 21.8999 72.963 21.8999Z" fill="#E4FE7E"/>
<path d="M100.081 18.272V17.772H99.5807H90.0484V14.5131H98.1061H98.6061V14.0131V10.7007V10.2007H98.1061H90.0484V7.20475H99.2384H99.7384V6.70475V3.28716V2.78716H99.2384H85.3091H84.8091V3.28716V21.6896V22.1896H85.3091H99.5807H100.081V21.6896V18.272ZM117.136 2.18301V1.68301H116.636H112.528H112.028V2.18301V7.92335C111.013 7.19178 109.756 6.83569 108.289 6.83569C106.877 6.83569 105.582 7.15176 104.415 7.79095L104.412 7.79262C103.257 8.43525 102.348 9.35359 101.69 10.5365C101.028 11.7255 100.705 13.091 100.705 14.6178C100.705 16.1445 101.028 17.51 101.69 18.6991C102.348 19.882 103.257 20.8003 104.412 21.443L104.415 21.4446C105.582 22.0838 106.877 22.3999 108.289 22.3999C109.851 22.3999 111.171 22.0174 112.212 21.2282V21.6896V22.1896H112.712H116.636H117.136V21.6896V2.18301ZM111.218 12.1235L111.218 12.1235L111.222 12.1279C111.797 12.7161 112.107 13.5266 112.107 14.6178C112.107 15.7072 111.798 16.5289 111.22 17.1362C110.636 17.7335 109.908 18.0349 109 18.0349C108.071 18.0349 107.335 17.7317 106.753 17.1362C106.175 16.5289 105.866 15.7072 105.866 14.6178C105.866 13.5266 106.176 12.7161 106.75 12.1279L106.75 12.1279L106.755 12.1235C107.339 11.5105 108.074 11.2007 109 11.2007C109.905 11.2007 110.632 11.5087 111.218 12.1235ZM120.061 7.04601H119.561V7.54601V21.6896V22.1896H120.061H124.169H124.669V21.6896V7.54601V7.04601H124.169H120.061ZM124.298 5.28424L124.298 5.28431L124.305 5.27753C124.881 4.72347 125.169 4.02178 125.169 3.20829C125.169 2.43368 124.871 1.77202 124.29 1.25697C123.708 0.740164 122.968 0.5 122.115 0.5C121.257 0.5 120.514 0.752245 119.933 1.29008C119.356 1.82337 119.061 2.50001 119.061 3.28716C119.061 4.07431 119.356 4.75095 119.933 5.28424C120.514 5.82207 121.257 6.07432 122.115 6.07432C122.973 6.07432 123.716 5.82207 124.298 5.28424ZM137.039 21.4084L137.345 21.1826L137.209 20.8275L136.103 17.9357L135.864 17.3092L135.332 17.7177C134.974 17.9926 134.532 18.14 133.977 18.14C133.52 18.14 133.223 18.0163 133.024 17.8227C132.837 17.6081 132.713 17.2796 132.713 16.7735V11.5162H135.741H136.241V11.0162V7.86148V7.36148H135.741H132.713V4.41759V3.91759H132.213H128.105H127.605V4.41759V7.36148H125.92H125.42V7.86148V11.0162V11.5162H125.92H127.605V16.8261C127.605 18.5817 128.089 19.9945 129.132 20.9759L129.135 20.9791C130.185 21.9482 131.63 22.3999 133.398 22.3999C134.084 22.3999 134.738 22.3259 135.359 22.1756L135.359 22.1757L135.369 22.173C136.013 22.0027 136.574 21.7513 137.039 21.4084ZM140.71 21.4204L140.71 21.4205L140.718 21.4245C141.99 22.0781 143.413 22.3999 144.975 22.3999C146.538 22.3999 147.953 22.0782 149.209 21.4231L149.209 21.4231L149.214 21.4204C150.466 20.7486 151.455 19.8194 152.171 18.6357C152.889 17.4468 153.243 16.1028 153.243 14.6178C153.243 13.1328 152.889 11.7888 152.171 10.5999C151.455 9.41581 150.465 8.4946 149.212 7.84014C147.955 7.1667 146.539 6.83569 144.975 6.83569C143.411 6.83569 141.987 7.16697 140.714 7.83941C139.46 8.49392 138.47 9.41537 137.754 10.5999C137.036 11.7888 136.681 13.1328 136.681 14.6178C136.681 16.1028 137.036 17.4468 137.754 18.6357C138.469 19.8194 139.458 20.7486 140.71 21.4204ZM147.194 17.1384L147.194 17.1387C146.63 17.7312 145.905 18.0349 144.975 18.0349C144.047 18.0349 143.311 17.7317 142.729 17.1362C142.151 16.5289 141.842 15.7072 141.842 14.6178C141.842 13.5266 142.152 12.7161 142.726 12.1279L142.726 12.1279L142.731 12.1235C143.315 11.5105 144.05 11.2007 144.975 11.2007C145.901 11.2007 146.625 11.5103 147.189 12.1187L147.189 12.1188L147.198 12.1279C147.773 12.7161 148.083 13.5266 148.083 14.6178C148.083 15.7085 147.773 16.5309 147.194 17.1384ZM160.815 7.40129C160.341 7.60267 159.914 7.85604 159.536 8.16154V7.54601V7.04601H159.036H155.113H154.613V7.54601V21.6896V22.1896H155.113H159.22H159.72V21.6896V15.0121C159.72 13.7761 160.033 12.9473 160.569 12.4263L160.574 12.4216C161.126 11.8711 161.907 11.5688 162.986 11.5688C163.122 11.5688 163.41 11.5846 163.869 11.6199L164.407 11.6612V11.1213V7.33569V6.83569H163.907C162.765 6.83569 161.733 7.01961 160.819 7.39982L160.815 7.40129Z" fill="#E4FE7E" stroke="black"/>
</svg>
